<svg xmlns="http://www.w3.org/2000/svg" viewBox="0 0 280 280" width="280" height="280">
  <defs>
    <linearGradient id="rb" x1="0%" y1="0%" x2="0%" y2="100%">
      <stop offset="0%" stop-color="#ff2b1a"/>
      <stop offset="45%" stop-color="#e0140a"/>
      <stop offset="100%" stop-color="#180000"/>
    </linearGradient>
  </defs>
  <g fill="url(#rb)">
    <path d="M 167.25 153.00 L 164.50 153.00 L 162.25 155.00 L 147.50 162.00 L 142.00 166.50 L 142.00 244.25 L 143.00 245.50 L 146.25 244.75 L 192.25 215.75 L 202.75 207.50 L 212.75 193.25 L 212.25 192.00 L 207.50 193.00 L 193.25 202.00 L 168.50 215.00 L 167.75 214.25 Z"/>
    <path d="M 107.50 153.00 L 107.00 214.25 L 106.25 215.00 L 81.50 202.00 L 67.25 193.00 L 62.50 192.00 L 62.00 193.25 L 72.00 207.50 L 82.50 215.75 L 128.50 244.75 L 131.75 245.50 L 132.75 244.25 L 132.75 166.50 L 127.25 162.00 L 112.50 155.00 L 110.25 153.00 Z"/>
    <path d="M 231.25 148.00 L 224.50 151.00 L 222.25 153.00 L 217.50 155.00 L 215.25 157.00 L 210.50 159.00 L 208.25 161.00 L 203.50 163.00 L 201.25 165.00 L 194.50 168.00 L 192.25 170.00 L 187.50 172.00 L 186.00 173.50 L 186.00 195.25 L 186.50 195.75 L 188.25 195.75 L 189.50 194.75 L 194.25 192.75 L 196.50 190.75 L 201.25 188.75 L 206.50 184.75 L 209.25 183.75 L 211.50 181.75 L 214.25 180.75 L 216.50 178.75 L 219.25 177.75 L 221.50 175.75 L 224.25 174.75 L 226.50 172.75 L 227.25 172.75 L 229.50 170.75 L 230.25 170.75 L 231.75 169.25 L 231.75 148.50 Z"/>
    <path d="M 43.50 148.00 L 43.00 148.50 L 43.00 169.25 L 44.50 170.75 L 45.25 170.75 L 50.50 174.75 L 53.25 175.75 L 55.50 177.75 L 58.25 178.75 L 60.50 180.75 L 63.25 181.75 L 65.50 183.75 L 68.25 184.75 L 73.50 188.75 L 78.25 190.75 L 80.50 192.75 L 81.25 192.75 L 86.50 195.75 L 88.25 195.75 L 88.75 195.25 L 88.75 173.50 L 87.25 172.00 L 82.50 170.00 L 80.25 168.00 L 73.50 165.00 L 71.25 163.00 L 66.50 161.00 L 64.25 159.00 L 59.50 157.00 L 57.25 155.00 L 52.50 153.00 L 50.25 151.00 Z"/>
    <path d="M 124.50 88.00 L 114.00 96.25 L 109.00 104.50 L 108.00 110.25 L 107.00 111.50 L 107.00 120.25 L 108.00 121.50 L 109.00 127.25 L 114.00 135.50 L 120.50 141.75 L 126.50 144.75 L 129.25 144.75 L 130.50 145.75 L 144.25 145.75 L 145.50 144.75 L 148.25 144.75 L 155.50 140.75 L 161.75 134.25 L 165.75 127.25 L 166.75 121.50 L 167.75 120.25 L 167.75 111.50 L 166.75 110.25 L 165.75 104.50 L 161.75 97.50 L 157.50 93.00 L 152.25 89.00 L 148.50 88.00 L 148.00 96.25 L 154.00 104.50 L 156.00 110.50 L 156.00 119.25 L 155.00 122.25 L 152.00 127.25 L 147.25 132.00 L 140.25 135.00 L 134.50 135.00 L 127.50 132.00 L 123.75 128.50 L 120.75 124.25 L 118.75 119.25 L 118.75 110.50 L 120.75 104.50 L 126.75 96.25 L 126.75 88.50 Z"/>
    <path d="M 132.50 80.00 L 131.00 81.50 L 131.00 100.25 L 132.00 101.50 L 132.00 110.25 L 133.00 111.50 L 133.00 114.25 L 134.00 115.50 L 134.00 119.25 L 135.50 120.75 L 136.25 120.75 L 137.00 120.00 L 137.75 120.00 L 138.50 120.75 L 139.25 120.75 L 140.75 119.25 L 140.75 115.50 L 141.75 114.25 L 141.75 111.50 L 142.75 110.25 L 142.75 101.50 L 143.75 100.25 L 143.75 81.50 L 142.25 80.00 Z"/>
    <path d="M 217.25 78.00 L 214.00 78.50 L 214.00 114.25 L 209.25 118.00 L 198.50 123.00 L 196.25 125.00 L 185.00 130.50 L 185.00 159.25 L 187.00 160.50 L 198.25 154.75 L 208.50 147.75 L 216.25 143.75 L 221.50 139.75 L 226.25 137.75 L 232.75 132.25 L 232.75 86.50 L 231.25 85.00 Z"/>
    <path d="M 57.50 78.00 L 43.50 85.00 L 42.00 86.50 L 42.00 132.25 L 48.50 137.75 L 53.25 139.75 L 58.50 143.75 L 66.25 147.75 L 76.50 154.75 L 87.75 160.50 L 89.75 159.25 L 89.75 130.50 L 78.50 125.00 L 76.25 123.00 L 65.50 118.00 L 60.75 114.25 L 60.75 78.50 Z"/>
    <path d="M 69.00 73.50 L 69.00 108.25 L 77.50 114.75 L 79.75 113.25 L 79.75 89.50 L 81.50 87.75 L 137.00 61.00 L 193.25 87.75 L 195.00 89.50 L 195.00 113.25 L 196.50 114.75 L 205.75 108.25 L 205.75 73.50 L 204.75 72.25 L 139.25 40.00 L 135.50 40.00 L 71.50 71.00 Z"/>
  </g>
</svg>
